0
SECTION
2
HEADER
9
$INSUNITS
70
4
9
$ACADVER
1
AC1014
9
$HANDSEED
5
FFFF
0
ENDSEC
0
SECTION
2
TABLES
0
TABLE
2
VPORT
5
8
100
AcDbSymbolTable
0
ENDTAB
0
TABLE
2
LTYPE
5
5
100
AcDbSymbolTable
0
LTYPE
5
14
100
AcDbSymbolTableRecord
100
AcDbLinetypeTableRecord
2
BYBLOCK
70
0
0
LTYPE
5
15
100
AcDbSymbolTableRecord
100
AcDbLinetypeTableRecord
2
BYLAYER
70
0
0
ENDTAB
0
TABLE
2
LAYER
5
2
100
AcDbSymbolTable
70
2
0
LAYER
5
50
100
AcDbSymbolTableRecord
100
AcDbLayerTableRecord
2
0
70
0
6
CONTINUOUS
0
ENDTAB
0
TABLE
2
STYLE
5
3
100
AcDbSymbolTable
70
1
0
STYLE
5
11
100
AcDbSymbolTableRecord
100
AcDbTextStyleTableRecord
2
STANDARD
70
0
0
ENDTAB
0
TABLE
2
VIEW
5
6
100
AcDbSymbolTable
70
0
0
ENDTAB
0
TABLE
2
UCS
5
7
100
AcDbSymbolTable
70
0
0
ENDTAB
0
TABLE
2
APPID
5
9
100
AcDbSymbolTable
70
2
0
APPID
5
12
100
AcDbSymbolTableRecord
100
AcDbRegAppTableRecord
2
ACAD
70
0
0
ENDTAB
0
TABLE
2
DIMSTYLE
5
A
100
AcDbSymbolTable
70
1
0
ENDTAB
0
TABLE
2
BLOCK_RECORD
5
1
100
AcDbSymbolTable
70
1
0
BLOCK_RECORD
5
1F
100
AcDbSymbolTableRecord
100
AcDbBlockTableRecord
2
*MODEL_SPACE
0
BLOCK_RECORD
5
1B
100
AcDbSymbolTableRecord
100
AcDbBlockTableRecord
2
*PAPER_SPACE
0
ENDTAB
0
ENDSEC
0
SECTION
2
BLOCKS
0
BLOCK
5
20
100
AcDbEntity
100
AcDbBlockBegin
2
*MODEL_SPACE
0
ENDBLK
5
21
100
AcDbEntity
100
AcDbBlockEnd
0
BLOCK
5
1C
100
AcDbEntity
100
AcDbBlockBegin
2
*PAPER_SPACE
0
ENDBLK
5
1D
100
AcDbEntity
100
AcDbBlockEnd
0
ENDSEC
0
SECTION
2
ENTITIES
0
CIRCLE
5
100
100
AcDbEntity
8
0
100
AcDbCircle
10
-143.50999999999999
20
73.356000000000122
30
0
40
3.0499999999999972
210
0
220
-0
230
1
0
CIRCLE
5
101
100
AcDbEntity
8
0
100
AcDbCircle
10
-272.41500000000002
20
70.485000000000127
30
0
40
1.3500000000000156
210
0
220
-0
230
1
0
CIRCLE
5
102
100
AcDbEntity
8
0
100
AcDbCircle
10
-250.19
20
73.356000000000122
30
0
40
3.0499999999999972
210
0
220
-0
230
1
0
CIRCLE
5
103
100
AcDbEntity
8
0
100
AcDbCircle
10
-113.03
20
73.356000000000122
30
0
40
3.0499999999999972
210
0
220
-0
230
1
0
LWPOLYLINE
5
104
100
AcDbEntity
8
0
100
AcDbPolyline
90
4
70
1
43
0.0
10
-96.790000000000006
20
94.835000000000178
10
-98.789999999999992
20
94.835000000000178
10
-98.789999999999992
20
160.93500000000031
10
-96.790000000000006
20
160.93500000000031
0
CIRCLE
5
105
100
AcDbEntity
8
0
100
AcDbCircle
10
-29.515000000000001
20
157.36800000000028
30
0
40
0.74999999999999734
210
0
220
-0
230
1
0
CIRCLE
5
106
100
AcDbEntity
8
0
100
AcDbCircle
10
-204.47
20
73.356000000000122
30
0
40
3.0499999999999972
210
0
220
-0
230
1
0
CIRCLE
5
107
100
AcDbEntity
8
0
100
AcDbCircle
10
-90.170000000000016
20
127.63500000000022
30
0
40
1.3499999999999979
210
0
220
-0
230
1
0
CIRCLE
5
108
100
AcDbEntity
8
0
100
AcDbCircle
10
-97.789999999999992
20
73.356000000000122
30
0
40
3.0499999999999972
210
0
220
-0
230
1
0
LWPOLYLINE
5
109
100
AcDbEntity
8
0
100
AcDbPolyline
90
4
70
1
43
0.0
10
-142.50999999999999
20
94.835000000000178
10
-144.50999999999999
20
94.835000000000178
10
-144.50999999999999
20
160.93500000000031
10
-142.50999999999999
20
160.93500000000031
0
CIRCLE
5
110
100
AcDbEntity
8
0
100
AcDbCircle
10
-212.09000000000003
20
127.63500000000022
30
0
40
1.3500000000000156
210
0
220
-0
230
1
0
LWPOLYLINE
5
111
100
AcDbEntity
8
0
100
AcDbPolyline
90
4
70
1
43
0.0
10
-172.99000000000001
20
94.835000000000178
10
-174.99000000000001
20
94.835000000000178
10
-174.99000000000001
20
160.93500000000031
10
-172.99000000000001
20
160.93500000000031
0
CIRCLE
5
112
100
AcDbEntity
8
0
100
AcDbCircle
10
-272.41500000000002
20
184.78500000000031
30
0
40
1.3500000000000156
210
0
220
-0
230
1
0
LWPOLYLINE
5
113
100
AcDbEntity
8
0
100
AcDbPolyline
90
4
70
1
43
0.0
10
-264.42999999999995
20
94.835000000000178
10
-266.43000000000001
20
94.835000000000178
10
-266.43000000000001
20
160.93500000000031
10
-264.42999999999995
20
160.93500000000031
0
CIRCLE
5
114
100
AcDbEntity
8
0
100
AcDbCircle
10
-29.845000000000002
20
184.78500000000031
30
0
40
1.3500000000000023
210
0
220
4.9303806576313238e-32
230
1
0
CIRCLE
5
115
100
AcDbEntity
8
0
100
AcDbCircle
10
-82.549999999999983
20
73.356000000000122
30
0
40
3.0499999999999972
210
0
220
-0
230
1
0
LWPOLYLINE
5
116
100
AcDbEntity
8
0
100
AcDbPolyline
90
4
70
1
43
0.0
10
-157.75
20
94.835000000000178
10
-159.75
20
94.835000000000178
10
-159.75
20
160.93500000000031
10
-157.75
20
160.93500000000031
0
LWPOLYLINE
5
117
100
AcDbEntity
8
0
100
AcDbPolyline
90
4
70
1
43
0.0
10
-112.03
20
94.835000000000178
10
-114.03
20
94.835000000000178
10
-114.03
20
160.93500000000031
10
-112.03
20
160.93500000000031
0
CIRCLE
5
118
100
AcDbEntity
8
0
100
AcDbCircle
10
-128.27000000000001
20
73.356000000000122
30
0
40
3.0499999999999972
210
0
220
-0
230
1
0
CIRCLE
5
119
100
AcDbEntity
8
0
100
AcDbCircle
10
-151.13
20
70.485000000000127
30
0
40
1.3499999999999979
210
0
220
-0
230
1
0
LWPOLYLINE
5
120
100
AcDbEntity
8
0
100
AcDbPolyline
90
4
70
1
43
0.0
10
-127.27000000000001
20
94.835000000000178
10
-129.26999999999998
20
94.835000000000178
10
-129.26999999999998
20
160.93500000000031
10
-127.27000000000001
20
160.93500000000031
0
CIRCLE
5
121
100
AcDbEntity
8
0
100
AcDbCircle
10
-219.71000000000001
20
73.356000000000122
30
0
40
3.0499999999999972
210
0
220
-0
230
1
0
CIRCLE
5
122
100
AcDbEntity
8
0
100
AcDbCircle
10
-173.99000000000001
20
73.356000000000122
30
0
40
3.0499999999999972
210
0
220
-0
230
1
0
LWPOLYLINE
5
123
100
AcDbEntity
8
0
100
AcDbPolyline
90
4
70
1
43
0.0
10
-35.829999999999998
20
160.93500000000031
10
-35.829999999999998
20
94.835000000000178
10
-37.829999999999998
20
94.835000000000178
10
-37.829999999999998
20
160.93500000000031
0
CIRCLE
5
124
100
AcDbEntity
8
0
100
AcDbCircle
10
-67.310000000000002
20
73.356000000000122
30
0
40
3.0499999999999972
210
0
220
-0
230
1
0
LWPOLYLINE
5
125
100
AcDbEntity
8
0
100
AcDbPolyline
90
4
70
1
43
0.0
10
-66.310000000000002
20
94.835000000000178
10
-68.310000000000002
20
94.835000000000178
10
-68.310000000000002
20
160.93500000000031
10
-66.310000000000002
20
160.93500000000031
0
CIRCLE
5
126
100
AcDbEntity
8
0
100
AcDbCircle
10
-151.13
20
184.78500000000031
30
0
40
1.3499999999999979
210
0
220
-0
230
1
0
CIRCLE
5
127
100
AcDbEntity
8
0
100
AcDbCircle
10
-158.75
20
73.356000000000122
30
0
40
3.0499999999999972
210
0
220
-0
230
1
0
CIRCLE
5
128
100
AcDbEntity
8
0
100
AcDbCircle
10
-189.23000000000002
20
73.356000000000122
30
0
40
3.0499999999999972
210
0
220
-0
230
1
0
LWPOLYLINE
5
129
100
AcDbEntity
8
0
100
AcDbPolyline
90
4
70
1
43
0.0
10
-51.069999999999993
20
94.835000000000178
10
-53.070000000000007
20
94.835000000000178
10
-53.070000000000007
20
160.93500000000031
10
-51.069999999999993
20
160.93500000000031
0
LWPOLYLINE
5
130
100
AcDbEntity
8
0
100
AcDbPolyline
90
4
70
1
43
0.0
10
-81.549999999999997
20
94.835000000000178
10
-83.550000000000011
20
94.835000000000178
10
-83.550000000000011
20
160.93500000000031
10
-81.549999999999997
20
160.93500000000031
0
CIRCLE
5
131
100
AcDbEntity
8
0
100
AcDbCircle
10
-234.95000000000002
20
73.356000000000122
30
0
40
3.0499999999999972
210
0
220
-0
230
1
0
CIRCLE
5
132
100
AcDbEntity
8
0
100
AcDbCircle
10
-265.43000000000001
20
73.356000000000122
30
0
40
3.0499999999999972
210
0
220
-0
230
1
0
CIRCLE
5
133
100
AcDbEntity
8
0
100
AcDbCircle
10
-52.07
20
73.356000000000122
30
0
40
3.0499999999999972
210
0
220
-0
230
1
0
CIRCLE
5
134
100
AcDbEntity
8
0
100
AcDbCircle
10
-36.829999999999998
20
73.356000000000122
30
0
40
3.0499999999999972
210
0
220
-0
230
1
0
LWPOLYLINE
5
135
100
AcDbEntity
8
0
100
AcDbPolyline
90
4
70
1
43
0.0
10
-218.70999999999998
20
94.835000000000178
10
-220.71000000000001
20
94.835000000000178
10
-220.71000000000001
20
160.93500000000031
10
-218.70999999999998
20
160.93500000000031
0
LWPOLYLINE
5
136
100
AcDbEntity
8
0
100
AcDbPolyline
90
4
70
1
43
0.0
10
-233.94999999999999
20
94.835000000000178
10
-235.95000000000002
20
94.835000000000178
10
-235.95000000000002
20
160.93500000000031
10
-233.94999999999999
20
160.93500000000031
0
LWPOLYLINE
5
137
100
AcDbEntity
8
0
100
AcDbPolyline
90
4
70
1
43
0.0
10
-188.23000000000002
20
94.835000000000178
10
-190.22999999999999
20
94.835000000000178
10
-190.22999999999999
20
160.93500000000031
10
-188.23000000000002
20
160.93500000000031
0
LWPOLYLINE
5
138
100
AcDbEntity
8
0
100
AcDbPolyline
90
4
70
1
43
0.0
10
-203.46999999999997
20
94.835000000000178
10
-205.47
20
94.835000000000178
10
-205.47
20
160.93500000000031
10
-203.46999999999997
20
160.93500000000031
0
CIRCLE
5
139
100
AcDbEntity
8
0
100
AcDbCircle
10
-29.845000000000002
20
70.485000000000127
30
0
40
1.3500000000000023
210
0
220
4.9303806576313238e-32
230
1
0
LWPOLYLINE
5
140
100
AcDbEntity
8
0
100
AcDbPolyline
90
4
70
1
43
0.0
10
-249.18999999999997
20
94.835000000000178
10
-251.19
20
94.835000000000178
10
-251.19
20
160.93500000000031
10
-249.18999999999997
20
160.93500000000031
0
LWPOLYLINE
5
141
100
AcDbEntity
8
0
100
AcDbPolyline
90
8
70
1
43
0.0
10
-24.130000000000003
20
185.4200000000003
42
0.4142134299584217
10
-29.209999234486258
20
190.49999999991417
10
-273.05000000000001
20
190.50000000000037
42
0.41421342995311694
10
-278.13000000007997
20
185.42000076560004
10
-278.13
20
69.850000000000108
42
0.41421342996291477
10
-273.05000076551977
20
64.769999999990361
10
-29.209999999999994
20
64.769999999996173
42
0.41421342996383376
10
-24.130000000000233
20
69.849999234490298
0
ENDSEC
0
SECTION
2
OBJECTS
0
DICTIONARY
5
C
100
AcDbDictionary
3
ACAD_GROUP
350
D
3
ACAD_MLINESTYLE
350
17
0
DICTIONARY
5
D
100
AcDbDictionary
0
DICTIONARY
5
1A
330
C
100
AcDbDictionary
0
DICTIONARY
5
17
100
AcDbDictionary
0
ENDSEC
0
EOF
